# xmcd CD Database Entry
#
# Track frame offsets:
# 150
# 12062
# 22926
# 38275
# 49421
# 62815
# 82842
# 93220
# 102664
# 115650
# 130664
# 145321
# 155529
# 168429
# 184985
# 195561
# 213049
# 225974
# 235396
# 249759
#
# Disc length: 3591 seconds
#
# Revision: 1
# Processed by: cddbd v1.4b41PL1 Copyright (c) Steve Scherf et al.
# Submitted via: tcd 2.0b
#
DISCID=f10e0514
DTITLE=J.J. Cale - The Very Best Of
DYEAR=1900
DGENRE=
TTITLE0=Call me the breeze
TTITLE1=Crazy mama
TTITLE2=Magnolia
TTITLE3=After midnight
TTITLE4=Lies
TTITLE5=Midnight in Memphis
TTITLE6=Cajun Moon
TTITLE7=Rock and roll records
TTITLE8=Cocaine
TTITLE9=Hey babe
TTITLE10=I'll make love to you anytime
TTITLE11=Don't cry sister
TTITLE12=Thirteen days
TTITLE13=Sensitive kind
TTITLE14=Carry on
TTITLE15=Mama don't
TTITLE16=City girls
TTITLE17=Devil in disguise
TTITLE18=Don't wait
TTITLE19=Money talks
EXTD=
EXTT0=
EXTT1=
EXTT2=
EXTT3=
EXTT4=
EXTT5=
EXTT6=
EXTT7=
EXTT8=
EXTT9=
EXTT10=
EXTT11=
EXTT12=
EXTT13=
EXTT14=
EXTT15=
EXTT16=
EXTT17=
EXTT18=
EXTT19=
PLAYORDER=
